<?xml version="1.0" encoding="utf-8"?>
<!-- Generator: Adobe Illustrator 27.2.0, SVG Export Plug-In . SVG Version: 6.00 Build 0)  -->
<svg class="logo_left" version="1.1" id="Layer_1" xmlns="http://www.w3.org/2000/svg" xmlns:xlink="http://www.w3.org/1999/xlink" x="0px" y="0px"
	 viewBox="0 0 83 45" style="enable-background:new 0 0 83 45;" xml:space="preserve">
<style type="text/css">
	.st0{fill:#231F20;}
</style>
<path class="st0" d="M17.6,1.6"/>
<path class="st0" d="M34,38.5c-0.1-0.3,0-1.8,0-1.8l-0.1-0.1v-0.5L33.8,36c0,0,0.1-0.2-0.2-0.3c-0.2,0-3.8-0.2-3.8-0.2
	s-0.7,0.2-0.8,0.2L28.8,36c0,0,0,5.6,0.2,6c0.1,0.3,0.1,1.1,0.1,1.1v0.1c0,0,0.1,0.2,0.1,0.3s0,0.3,0.2,0.3s3.2,0.5,3.2,0.5h0.8h0.5
	c0,0,0.1,0,0.1-0.2s0.1-3.4,0.1-3.4S34.1,38.9,34,38.5z M32.8,42.2c-0.2,0.3-2.4-0.3-2.4-0.3l-0.2-3.7h2.4l0.1,1
	C32.6,39.1,32.9,42,32.8,42.2z"/>
<path class="st0" d="M57.7,38.5c-0.1-0.3,0-1.8,0-1.8l-0.1-0.1v-0.5L57.5,36c0,0,0.1-0.2-0.2-0.3c-0.2,0-3.8-0.2-3.8-0.2
	s-0.7,0.2-0.8,0.2L52.5,36c0,0,0,5.6,0.2,6c0.1,0.3,0.1,1.1,0.1,1.1v0.1c0,0,0.1,0.2,0.1,0.3s0,0.3,0.2,0.3c0.1,0.1,3.2,0.5,3.2,0.5
	H57h0.5c0,0,0.1,0,0.1-0.2s0.1-3.4,0.1-3.4S57.8,38.9,57.7,38.5z M56.5,41.9c-0.2,0.3-2.4-0.3-2.4-0.3l-0.2-3.7h2.4l0.1,1
	C56.4,38.9,56.6,41.8,56.5,41.9z"/>
<path class="st0" d="M62.5,39h1.4c0,0-0.1-0.1,0-0.1s0.8,0,0.8,0s0.1-0.3,0.1-0.5s0.1-2,0.1-2V36c0,0-0.1,0-0.2-0.1S60.6,36,60.6,36
	l-0.7-0.1v2.2h-0.1L59.7,42l-0.1,1c0,0.1,0.3,1.2,0.3,1.2v0.3c0,0,3-0.2,3.2-0.3s0.1,0,0.1,0h0.7c0,0,0.1,0,0.1-0.1h0.7
	c0,0,0.4-0.2,0.3-0.3s0-2.4,0-2.4s-0.2-0.2-0.3-0.2c-0.5-0.1-2,0-2,0L62.5,39z"/>
<path class="st0" d="M42.3,36.1c0,0,1.8-0.2,2-0.2s2.3-0.2,2.3-0.2h1.2l1.6-0.2H51c0,0,0.3,1.4,0.4,1.8c0,0.4,0,1,0,1H51
	c0,0,0.2,0.2,0,0.3s-2.7-0.2-2.7-0.2l0.2,5.7c0.1,0-0.8-0.3-1,0c-0.1,0.1-2.2,0.3-2.3,0.1c-0.3-0.9,0-4.9-0.1-6.1
	c0-0.3-2.6,0.2-2.6-0.1C42.5,37.4,42.2,36.4,42.3,36.1z"/>
<path class="st0" d="M38.8,39h1.4c0,0-0.1-0.1,0-0.1s0.8,0,0.8,0s0.1-0.3,0.1-0.5s0.1-2,0.1-2V36c0,0-0.1,0-0.2-0.1
	c-0.1-0.1-4.1,0.1-4.1,0.1l-0.7-0.1v2.2h-0.1L36,42l-0.1,1c0,0.1,0.3,1.2,0.3,1.2v0.3c0,0,3-0.2,3.2-0.3s0.1,0,0.1,0h0.7
	c0,0,0.1,0,0.1-0.1H41c0,0,0.4-0.2,0.3-0.3c-0.1-0.1,0-2.4,0-2.4s-0.2-0.2-0.3-0.2c-0.5-0.1-2,0-2,0L38.8,39z"/>
<path class="st0" d="M18.6,36.1c0,0,1.8-0.2,2-0.2s2.3-0.2,2.3-0.2H24l1.6-0.2h1.6c0,0,0.3,1.4,0.4,1.8c0,0.4,0,1,0,1h-0.4
	c0,0,0.2,0.2,0,0.3s-2.7-0.2-2.7-0.2l0.2,5.7c0,0-0.8-0.3-1,0c-0.1,0.1-2.2,0.3-2.3,0.1c-0.3-0.9,0-4.9-0.1-6.1
	c0-0.3-2.6,0.2-2.6-0.1C18.7,37.4,18.5,36.4,18.6,36.1z"/>
<path class="st0" d="M48.8,31c0,0-3.5-3.2-4.2-3.6s-6.1-2.8-5.1-3.4c0.7-0.4,1.8-2.9,2.1-3.8c0.2-0.9,1.2-5.3,1.6-5.7
	c0.4-0.4-0.2-1.7-0.4-2.2c0-0.3-0.8-0.3-1.3-0.3l-0.8-3.7c0,0-1.3-1.9-1.8-1.9s-5.4-0.5-5.6-0.2c-0.2,0.2-4,0.6-4,0.6
	s-2.2-1.7-4-0.5s-2.1,3-2.2,3.3c-0.1,0.2,0.3,2.2,0.9,2.9s1,0.6,1.7,0.8s0.1,3.1,0.1,3.1l-0.5,1l-0.5,1.2c0,0-0.3,1.5-0.7,1.9
	c-0.4,0.4,0.8,0.8,0.8,0.8l1.8,0.3c0,0-0.4,4.1-0.5,4.5c-0.1,0.5-0.2,0.7,0,0.8c0.2,0.2,1.1,0.1,1.1,0.1s2.5-0.8,3.3-0.7
	s0.7,2.3,0.9,2.3c0.3,0-0.9,4.8-0.9,4.8s0.8,0,0.9,0s0.6-4,0.9-4.3c0.3-0.3,1.5-0.6,1.7-1.3c0.2-0.7,4.4-4,4.4-4v1
	c0,0,0.5,1.3,2.2,1.6c1.7,0.3,2.9,1.5,3.4,1.2s5.4,5.6,5.9,5.5s0.5-0.6,0.5-0.6L48.8,31z M32.8,7.2c0.3,0,5.2-0.1,5.7,0.3
	C39,8,39.6,8,39.8,8.9s0.9,3.6,0.9,3.6c-0.7,0.7-2,2.3-1.6,3.5c0.5,1.7-1.5,4.4-1.8,4.5c-0.4,0.1-2.3-0.3-2.3-1.1
	c0-0.6-2.2-6.3-2.2-6.3l-1.1-2.6c-0.4-0.3-0.7-0.6-1.1-1c-0.3-0.6-0.6-1.2-0.9-1.7C29.8,7.8,32.5,7.2,32.8,7.2z M25.1,12.4L24.6,12
	c0,0-0.9-1.8-0.3-3.1s2.4-1.6,3.2-1.6c0.8-0.1,1.9,2.3,1.9,2.3l0.2,0.4c0,0,0,0.4,0.5,0.4c0.4-0.1,1.3,2.6,1.3,2.6l1.9,5.9
	c0,0,1.2,2.5,1.7,2.8c0.5,0.2,1.9,0.2,2.5,0s1.4-1.4,1.9-1.8s0.9-4.3,0.9-4.9c0-0.6,1.5-1.6,1.5-1.6s0,0,0.5,0.2s-0.3,0.5-0.5,0.6
	s-0.7,1.8-0.7,2c0,0.2-0.5,2.1-0.4,2.9s-1.2,2.8-1.6,3.4c-0.4,0.6-2.7,1.6-3.4,1.8c-0.6,0.2-1.5-2.1-2.1-2.4s-2.5-6.7-2.6-7.1
	S30.1,13,30.1,13l-2.6-0.2c0,0-1.3-0.2-1.8-0.2 M26.5,13.7l1.1,0.2l2,0.1c0,0,0.8,0.1,0.6,0.5c-0.2,0.4,2.1,6.5,2.3,6.8
	c0.2,0.4,1.6,3.3,1.6,3.3l1.5,0.7l-3.3,3c0,0-0.1-0.3-0.4-1.3c-0.4-1-1.8-1.4-1.8-1.4l-2.9,0.8h-0.4l0.4-2.4c0,0,0.5-2.8,0.3-2.9
	s-2.4-0.4-2.4-0.4s1.5-4,1.7-4.2c0.1-0.1,0.2-1.3-0.1-2.3"/>
<path class="st0" d="M53,3.4c0,0-0.6-0.3-0.7-0.3S50.7,3,50.6,3c-0.1,0-1.1-0.4-2-0.4s-3.5,0.1-3.5,0.1h-0.8c0,0-0.9,0.1-1.1,0.2
	c-0.1,0.1-1.3,0.7-1.5,1s-0.8,2-0.8,2.2c0,0.2-0.1,1.1-0.1,1.1s0,0.5-0.1,0.5c0,0.1,0,0.4,0,0.4v0.4L41,10l0.1-0.2
	c0,0,0.3-0.6,0.3-1.4s0.2-0.2,0.4-0.6c0.1-0.4,0.2-3.1,0.6-3.3c0.4-0.1,1-0.9,2.3-1s3.9,0,4.2,0c0.4,0,2.1,0.4,2.3,0.4s0.5,0,0.8,0
	c0.2-0.1,0.6,0,0.6,0c-0.6,0.9-1,2-1,2s-0.9,0.3-1,0.6c-0.1,0.3-1.5,4-1.5,4.2c0,0.3-1.2,4.4-1.5,4.6c-0.3,0.2-0.5,1.5-1.2,1.6
	c-0.7,0.2-1.6,0.2-2-0.2C44,16.4,43,14.9,43,14.8c0.1-0.1-0.4,1.2-0.4,1.2s1.1,1.5,1.5,1.6s0.8,0.5,1.7,0.3s1.3-0.2,1.6-0.5
	c0.2-0.3,1.1-1.5,1.1-1.5l0.3-0.8l1.1-3.7l1.4-4c0,0,0.6-0.6,0.8-0.7c0.3-0.1,0.5-0.3,0.4-0.5s1.3-2.3,1.5-2.4
	c0.1,0,1.9-0.2,2.4,0.2s1,0.8,1.2,1.1c0.2,0.3,0.6,1.1,0.5,1.2C58,6.2,57.9,7.9,57.7,8c-0.2,0.1-0.5,0.9-0.8,1c-0.2,0.1-0.6,0-0.6,0
	L54,9.4c0,0-1.9,0-2.1,0.2c-0.1,0.2-0.4,0.1-0.6,0.8c-0.2,0.8-0.5,1-0.6,1.5c-0.2,0.5-1.9,5.9-2.4,6.3c-0.5,0.4-0.9,1.7-1.2,1.9
	c-0.3,0.2-1.1,0.8-1.7,0.6c-0.6-0.2-3-1.7-2.8-1.7s-0.5-1-0.5-1l-0.3,1.2c0,0,1,0.9,1.1,1.1c0,0.2,0.3,0.2,0.2,0.5s-0.4,0.9-0.7,0.9
	c-0.3,0.1-0.9,0.3-1.2,0.5c-0.2,0.2-0.4,0.9-0.4,0.9L40,23.5L39.5,24c0,0,0.1,0.3,0.5,0.2c0.3-0.2,1.8-0.5,1.8-0.7s0.8-0.7,0.8-0.7
	s1-1,1-1.1s0.2-0.9,0.1-1s1.2,0.8,1.2,0.8s1.3,0.3,1.6,0.2c0.4-0.1,1.2-0.8,1.4-1s1.2-1.7,1.3-2c0-0.3,0.8-1.6,0.8-1.6
	s1.3-3.4,1.3-3.9c0.1-0.5,0.8-2.3,0.8-2.3s1.8-0.1,1.9-0.2c0.2-0.1,1.5-0.3,1.5-0.3s-0.4,0.5-0.4,0.9s0,1.6,0.2,1.7s0.3,0.9,0.5,1.1
	c0.2,0.2,0.9,2,0.9,2.2s0.3,0.9,0.3,0.9s-1.8,0.2-1.9,0.2c-0.2,0-0.6,0.4-0.6,0.4s-0.1,0.6,0,0.8c0.1,0.2,0.5,2.8,0.5,2.8
	s0.1,0.6,0.1,0.7c0,0.2,0.1,0.5,0.1,0.5v0.3c0,0-0.6-0.1-0.8-0.2s-2.2-0.6-2.2-0.6s-0.7-0.2-0.8-0.1s-1.2,0.9-1.2,1.1
	s-0.6,1.5-0.5,1.6c0.1,0.2,0.5,2,0.6,2.3c0.1,0.2,0.6,1.5,0.7,1.5s0.6,0.9,0.8,1C51.9,29.7,52,30,52,30l0.7,0.5c0,0,0.1,0.2,0.2,0
	C53,30.3,53,30,53,30l-0.4-0.3c0,0-0.3-0.4-0.7-0.8s-1.4-2.5-1.4-3.9s1.2-2,1.2-2l0.9,0.2l1.7,0.5c0,0,1,0,1.1-0.1s0.3-0.2,0.3-0.3
	s0.2-1.3,0.2-1.3v-0.4l-0.6-2.8v-0.7h1.1l0.2-0.2c0,0,0.4,0.1,0.7,0s0.6-0.1,0.6-0.3c0-0.2,0.1-0.4,0-0.5s-1.7-4.2-1.6-4.4
	c0.1-0.2-0.2-1-0.2-1s0.1-1.7,0.3-1.8s0.7-0.1,0.8-0.3c0.2-0.3,0.5-0.4,0.6-0.5c0.1-0.2,0.3,0,0.3-0.2c0.1-0.2,0.1-0.1,0.1-0.3
	c0-0.4,0.7-1.1,0.7-2.1s-0.8-2.6-1.6-3.2s-2.5-1-3.6-0.7C53.6,2.8,53.3,3,53,3.4z"/>
</svg>
