<?xml version="1.0" encoding="UTF-8"?>
<svg id="Layer_1" data-name="Layer 1" xmlns="http://www.w3.org/2000/svg" viewBox="0 0 83 45">
  <defs>
    <style>
      .cls-1 {
        fill: #231f20;
      }
    </style>
  </defs>
  <rect class="cls-1" x="16.64" y=".65" width=".95" height="34"/>
  <rect class="cls-1" x="17.45" y=".65" width="50.08" height=".95"/>
  <rect class="cls-1" x="66.59" y="1.47" width=".95" height="33.18"/>
  <rect class="cls-1" x="17.55" y="33.72" width="49.12" height=".93"/>
  <path class="cls-1" d="m34.02,38.5c-.08-.3-.05-1.81-.05-1.81l-.08-.08v-.47l-.08-.17s.08-.24-.15-.26-3.78-.23-3.78-.23c0,0-.65.23-.79.17l-.29.32s0,5.61.2,6.02c.14.29.08,1.15.08,1.15l.04.12s.09.2.06.27c-.03.08.05.27.15.33s3.18.48,3.18.48h1.3s.11-.03.11-.21.09-3.45.09-3.45c0,0,.11-1.77,0-2.19Zm-1.26,3.69c-.15.3-2.42-.33-2.42-.33l-.24-3.72h2.42l.09,1s.24,2.88.15,3.05Z"/>
  <path class="cls-1" d="m57.71,38.5c-.08-.3-.05-1.81-.05-1.81l-.08-.08v-.47l-.08-.17s.08-.24-.15-.26-3.78-.23-3.78-.23c0,0-.65.23-.79.17l-.29.32s0,5.61.2,6.02c.14.29.08,1.15.08,1.15l.04.12s.09.2.06.27c-.03.08.05.27.15.33.11.06,3.18.48,3.18.48h1.3s.11-.03.11-.21.09-3.45.09-3.45c0,0,.11-1.77,0-2.19Zm-1.19,3.43c-.15.3-2.42-.33-2.42-.33l-.24-3.72h2.42l.09,1s.24,2.88.15,3.05Z"/>
  <path class="cls-1" d="m62.49,38.97h1.38s-.09-.08,0-.08h.76s.14-.32.11-.47.11-2.01.11-2.01v-.41s-.08-.03-.17-.09-4.08.09-4.08.09l-.74-.11v2.22l-.09.05-.09,3.83s-.08.95-.09,1.01.26,1.16.26,1.16v.35s2.99-.17,3.19-.27c.16-.08.11-.05.11-.05l.67-.03s.06-.05.09-.14h.68s.36-.17.27-.27.01-2.4.01-2.4c0,0-.17-.16-.27-.18-.54-.09-2.04.04-2.04.04l-.04-2.25Z"/>
  <path class="cls-1" d="m42.33,36.07s1.75-.21,1.97-.18,2.27-.21,2.27-.21h1.18l1.57-.18h1.6s.33,1.42.36,1.84,0,1.03,0,1.03h-.39s.18.21.03.27-2.69-.18-2.69-.18c0,0,.15,5.65.24,5.69s-.76-.27-1.03,0c-.15.15-2.19.34-2.28.07-.3-.93-.05-4.87-.09-6.07,0-.25-2.56.24-2.57-.11-.02-.65-.3-1.67-.17-1.97Z"/>
  <path class="cls-1" d="m38.79,38.97h1.38s-.09-.08,0-.08h.76s.14-.32.11-.47.11-2.01.11-2.01v-.41s-.08-.03-.17-.09-4.08.09-4.08.09l-.74-.11v2.22l-.09.05-.09,3.83s-.08.95-.09,1.01c-.02.06.26,1.16.26,1.16v.35s2.99-.17,3.19-.27c.16-.08.11-.05.11-.05l.67-.03s.06-.05.09-.14h.68s.36-.17.27-.27c-.09-.11.01-2.4.01-2.4,0,0-.17-.16-.27-.18-.54-.09-2.04.04-2.04.04l-.04-2.25Z"/>
  <path class="cls-1" d="m18.59,36.07s1.75-.21,1.97-.18,2.27-.21,2.27-.21h1.18l1.57-.18h1.6s.33,1.42.36,1.84,0,1.03,0,1.03h-.39s.18.21.03.27-2.69-.18-2.69-.18c0,0,.15,5.65.24,5.69s-.76-.27-1.03,0c-.15.15-2.19.34-2.28.07-.3-.93-.05-4.87-.09-6.07,0-.25-2.56.24-2.57-.11-.02-.65-.3-1.67-.17-1.97Z"/>
  <path class="cls-1" d="m48.79,30.96s-3.52-3.21-4.18-3.57-6.1-2.75-5.08-3.39c.69-.43,1.83-2.93,2.06-3.81s1.22-5.26,1.64-5.69-.24-1.69-.36-2.18c-.08-.34-.88-.32-1.36-.28l-.79-3.71s-1.25-1.87-1.8-1.94-5.4-.48-5.63-.24c-.23.24-4.03.6-4.03.6,0,0-2.18-1.69-3.99-.48s-2.12,3.02-2.2,3.27c-.09.24.33,2.24.92,2.9.59.67.98.6,1.7.85s.06,3.14.06,3.14l-.48,1.03-.54,1.21s-.3,1.51-.67,1.94.79.85.79.85l1.75.3s-.42,4.05-.48,4.54-.18.67,0,.85,1.09.12,1.09.12c0,0,2.54-.85,3.33-.73s.67,2.3.93,2.27-.93,4.81-.93,4.81h.93c.14,0,.64-3.99.94-4.29s1.45-.6,1.68-1.33c.23-.73,4.43-3.99,4.43-3.99v1.03s.48,1.27,2.21,1.57c1.74.3,2.92,1.51,3.4,1.21s5.38,5.62,5.93,5.5.54-.6.54-.6l-1.81-1.75ZM32.79,7.19c.27,0,5.24-.15,5.72.32.48.47,1.08.53,1.32,1.44s.89,3.57.89,3.57c-.7.74-1.95,2.28-1.6,3.5.48,1.69-1.46,4.35-1.83,4.48s-2.3-.3-2.3-1.09c0-.58-2.19-6.29-2.19-6.29l-1.07-2.6-1.09-.97c-.29-.58-.58-1.17-.87-1.75,0,0,2.75-.61,3.02-.61Zm-7.67,5.21l-.47-.43s-.91-1.75-.3-3.14,2.42-1.57,3.2-1.63c.78-.06,1.88,2.3,1.88,2.3l.21.37s.03.42.47.36c.44-.06,1.34,2.6,1.34,2.6l1.91,5.93s1.21,2.54,1.69,2.78,1.94.18,2.54,0,1.39-1.39,1.87-1.79c.48-.4.91-4.26.91-4.86s1.45-1.57,1.45-1.57l.47.24c.47.24-.35.54-.47.6s-.67,1.75-.68,2-.47,2.06-.37,2.9-1.19,2.84-1.55,3.45-2.72,1.57-3.36,1.75c-.64.18-1.48-2.06-2.09-2.36s-2.54-6.65-2.6-7.14-1.07-1.75-1.07-1.75l-2.56-.18s-1.28-.16-1.81-.16m.75,1.01l1.06.17,2,.12s.79.06.56.48c-.23.42,2.1,6.47,2.34,6.83s1.62,3.29,1.62,3.29l1.52.71-3.27,3.02s-.06-.3-.42-1.27-1.8-1.39-1.8-1.39l-2.86.85h-.36l.36-2.42s.54-2.78.3-2.9c-.24-.12-2.36-.42-2.36-.42,0,0,1.51-3.99,1.69-4.23.09-.12.25-1.35-.12-2.3"/>
  <path class="cls-1" d="m52.99,3.38s-.59-.26-.7-.26-1.56-.11-1.69-.16-1.08-.39-1.96-.42-3.52.12-3.52.12l-.77-.02s-.93.11-1.07.2c-.14.09-1.34.7-1.52,1.02s-.82,1.96-.82,2.19-.09,1.1-.09,1.1c0,0-.04.47-.09.54s0,.43,0,.43l-.02.37.3,1.49.09-.16s.32-.6.32-1.39.24-.24.36-.6.2-3.14.61-3.27,1.02-.91,2.29-1.03,3.87,0,4.23,0,2.13.42,2.33.42.51.02.75-.05.59-.03.59-.03c-.58.9-1,1.96-1,1.96,0,0-.91.31-1.02.62-.1.3-1.52,3.96-1.52,4.23s-1.21,4.35-1.48,4.57c-.27.21-.48,1.45-1.18,1.6-.7.15-1.63.15-2-.18s-1.41-1.8-1.35-1.92-.42,1.22-.42,1.22c0,0,1.1,1.52,1.46,1.61s.76.45,1.66.3,1.33-.21,1.57-.51,1.06-1.54,1.06-1.54l.33-.76,1.12-3.75,1.42-4.02s.57-.6.85-.73c.27-.12.45-.27.39-.5s1.33-2.35,1.45-2.38,1.87-.24,2.39.15c.51.39,1.03.79,1.18,1.06.15.27.6,1.06.54,1.17s-.21,1.8-.42,1.89c-.21.09-.54.94-.76,1-.21.06-.64.03-.64.03l-2.3.35s-1.91-.03-2.06.17c-.14.18-.36.1-.57.76-.24.76-.45,1.03-.6,1.48-.15.45-1.91,5.93-2.42,6.32-.51.39-.91,1.66-1.18,1.91-.27.24-1.06.85-1.69.64-.64-.21-2.99-1.72-2.79-1.72s-.54-.87-.54-.87l-.3,1.24s1.04.93,1.07,1.11c.03.18.27.24.15.54s-.42.88-.74.94c-.32.06-.92.33-1.16.48s-.41.88-.41.88l-.77.36-.42.43s.12.3.45.15c.33-.15,1.78-.51,1.81-.67.03-.15.85-.67.85-.67,0,0,1-1.03.97-1.15-.03-.12.15-.94.06-1-.09-.06,1.24.79,1.24.79,0,0,1.27.27,1.63.15s1.21-.79,1.36-1c.15-.21,1.24-1.72,1.27-2,.03-.27.82-1.57.82-1.57,0,0,1.27-3.45,1.33-3.93s.82-2.3.82-2.3c0,0,1.78-.12,1.94-.18.15-.06,1.48-.3,1.48-.3,0,0-.43.51-.43.94s.03,1.57.15,1.72.3.91.48,1.12.91,2.03.88,2.19c-.03.16.3.89.3.89,0,0-1.78.18-1.94.15-.15-.03-.57.39-.57.39,0,0-.06.61,0,.82s.54,2.84.54,2.84c0,0,.07.56.09.7.03.18.09.48.09.48v.33s-.6-.09-.82-.18c-.21-.09-2.18-.57-2.18-.57,0,0-.7-.21-.82-.09s-1.18.94-1.18,1.12-.6,1.45-.54,1.6.45,2.03.57,2.27.6,1.45.73,1.54.57.88.76.97.3.48.3.48l.73.48s.12.24.21,0c.09-.24.12-.48.12-.48l-.39-.3s-.27-.36-.67-.76c-.39-.39-1.37-2.54-1.38-3.93s1.22-1.97,1.22-1.97l.89.24,1.72.45s1.01.03,1.07-.09c.06-.11.33-.17.33-.33s.2-1.28.2-1.28v-.36l-.64-2.81v-.67h1.09l.15-.18s.42.12.67,0,.64-.09.64-.33.06-.42,0-.51-1.69-4.23-1.6-4.38c.09-.15-.15-1.03-.15-1.03,0,0,.12-1.72.3-1.84s.67-.06.85-.33.51-.36.63-.54.28,0,.34-.21.07-.09.09-.27c.04-.36.73-1.09.7-2.09-.03-1-.85-2.6-1.63-3.18s-2.48-1-3.6-.67c-.3.09-.6.35-.87.7Z"/>
</svg>